<?xml version="1.0" standalone="no"?>
<!DOCTYPE svg PUBLIC "-//W3C//DTD SVG 20010904//EN"
 "http://www.w3.org/TR/2001/REC-SVG-20010904/DTD/svg10.dtd">
<svg version="1.0" xmlns="http://www.w3.org/2000/svg"
 width="308.000000pt" height="308.000000pt" viewBox="0 0 308.000000 308.000000"
 preserveAspectRatio="xMidYMid meet">
<metadata>
Created by potrace 1.11, written by Peter Selinger 2001-2013
</metadata>
<g transform="translate(0.000000,308.000000) scale(0.100000,-0.100000)"
fill="#000000" stroke="none">
<path d="M0 1535 l0 -1335 1540 0 1540 0 0 1335 0 1335 -1540 0 -1540 0 0
-1335z m3040 0 l0 -1295 -1500 0 -1500 0 0 1096 0 1095 57 60 c158 166 484
286 888 328 44 5 524 9 1068 10 l987 1 0 -1295z"/>
<path d="M1437 2743 c-11 -3 -16 -11 -13 -21 3 -9 6 -55 8 -102 3 -79 2 -85
-17 -85 -17 0 -22 10 -30 61 -10 59 -11 61 -31 48 -19 -13 -20 -18 -10 -65 8
-39 7 -52 -2 -58 -7 -4 24 -6 70 -3 81 4 106 10 81 19 -7 3 -13 17 -13 31 l0
27 19 -25 c11 -13 17 -28 15 -32 -3 -4 14 -8 37 -8 40 0 41 0 21 18 -11 9 -28
29 -37 44 -17 27 -17 27 17 48 l33 20 -42 0 c-39 0 -58 -13 -32 -22 6 -2 1
-12 -10 -22 l-21 -19 0 76 c0 79 -1 81 -43 70z"/>
<path d="M1333 2704 c-3 -8 -1 -20 5 -26 15 -15 43 8 35 28 -7 19 -32 18 -40
-2z"/>
<path d="M1150 2688 c-40 -11 -63 -28 -38 -28 21 0 62 -158 46 -177 -14 -17 4
-17 64 1 65 20 86 33 93 56 9 27 -20 70 -46 70 -19 0 -19 1 -5 16 19 18 20 28
6 55 -12 21 -60 24 -120 7z m76 -34 c4 -17 1 -31 -10 -42 -19 -20 -31 -9 -41
36 -6 29 -5 32 19 32 19 0 27 -6 32 -26z m34 -83 c15 -30 12 -49 -11 -62 -26
-14 -38 -3 -49 45 -8 35 -7 36 21 36 18 0 32 -7 39 -19z"/>
<path d="M1874 2669 c-29 -15 -54 -61 -54 -102 0 -52 38 -92 102 -107 46 -12
52 -11 65 6 23 32 9 50 -17 19 -17 -21 -52 -19 -78 5 -37 35 -27 123 17 157
35 27 101 6 101 -33 0 -24 17 -16 22 11 4 20 -1 26 -34 40 -43 17 -93 19 -124
4z"/>
<path d="M1616 2635 c-23 -24 -28 -52 -14 -82 14 -29 42 -39 84 -29 31 8 31
25 0 19 -17 -4 -28 2 -40 18 -24 35 -20 41 23 34 44 -7 58 4 41 35 -13 24 -71
28 -94 5z m62 -13 c2 -7 -6 -12 -17 -12 -21 0 -27 11 -14 24 9 9 26 2 31 -12z"/>
<path d="M2084 2621 c10 -15 -64 -171 -81 -171 -19 0 -16 -17 5 -23 9 -2 26
-8 36 -13 13 -5 17 -4 12 4 -10 17 25 82 46 82 10 0 18 -7 18 -15 0 -23 -27
-72 -42 -77 -7 -3 1 -12 19 -21 39 -21 44 -21 37 -3 -3 8 4 33 16 56 20 40 21
43 4 61 -9 10 -25 19 -36 19 -23 0 -23 2 3 51 11 23 19 42 17 44 -2 2 -16 7
-32 11 -21 5 -27 4 -22 -5z"/>
<path d="M946 2519 c-14 -11 -26 -17 -26 -13 0 4 -9 -1 -19 -10 -19 -17 -19
-18 5 -53 28 -41 30 -56 9 -73 -12 -10 -20 -4 -46 39 -18 28 -36 51 -40 51 -5
0 -13 -9 -19 -21 -9 -16 -8 -23 2 -32 14 -12 48 -62 48 -70 0 -3 -9 -7 -20
-10 -15 -4 -28 4 -48 29 -31 40 -64 44 -86 12 -18 -25 -21 -68 -6 -68 10 0 14
13 11 43 -3 21 27 23 35 3 3 -8 -2 -26 -11 -39 -9 -14 -15 -31 -14 -39 6 -46
-15 -50 -54 -10 -21 22 -24 31 -15 40 16 16 2 28 -15 14 -10 -9 -17 -8 -25 0
-9 9 -12 7 -12 -9 0 -12 -3 -28 -6 -37 -4 -10 -1 -16 8 -16 8 0 27 -13 43 -30
36 -37 60 -38 83 -2 9 15 24 28 32 30 8 2 20 10 27 19 7 9 21 21 32 27 90 51
170 102 171 109 0 5 -4 6 -9 3 -10 -6 -43 73 -35 85 10 17 24 9 44 -23 11 -18
17 -41 14 -51 -5 -17 -4 -17 30 0 20 9 36 21 36 25 0 5 -5 6 -10 3 -6 -4 -19
14 -30 38 -16 37 -36 57 -54 57 -2 0 -15 -9 -30 -21z m-166 -233 c-13 -13 -35
7 -25 24 5 8 11 8 21 -1 10 -8 12 -15 4 -23z"/>
<path d="M777 2514 c-16 -16 -7 -44 14 -44 15 0 20 5 17 22 -3 22 -19 33 -31
22z"/>
<path d="M2197 2443 c-17 -16 -4 -25 29 -19 31 6 35 5 32 -11 -3 -14 -12 -17
-45 -15 -49 3 -70 -16 -53 -47 6 -12 20 -21 30 -21 11 0 20 -4 20 -8 0 -5 21
-23 48 -40 26 -16 60 -44 76 -61 27 -28 55 -43 42 -23 -3 5 10 24 29 42 27 26
38 31 47 22 14 -14 -16 -60 -51 -78 l-22 -12 30 -21 c17 -13 31 -17 31 -11 0
6 14 29 32 51 35 43 32 64 -10 84 -11 5 -23 18 -26 28 -2 10 -14 21 -25 24
-12 3 -21 11 -21 18 0 7 -9 15 -21 18 -15 4 -30 -5 -56 -34 -31 -34 -37 -37
-50 -23 -14 13 -12 19 11 54 14 22 26 42 26 44 0 3 -10 14 -22 26 -21 19 -68
27 -81 13z m33 -72 c0 -12 -26 -32 -33 -25 -9 10 4 34 19 34 8 0 14 -4 14 -9z
m164 -60 c8 -12 -42 -71 -59 -71 -27 0 -27 22 1 51 28 29 48 36 58 20z"/>
<path d="M520 2188 c-11 -18 -20 -28 -21 -23 -1 13 -17 -26 -18 -42 -1 -7 5
-13 12 -13 15 -1 67 -46 67 -58 0 -23 -35 -21 -77 4 -25 14 -46 24 -47 22 -2
-1 -9 -13 -15 -25 -10 -19 -9 -23 5 -23 23 0 74 -32 74 -47 0 -24 -22 -24 -65
2 l-45 26 -9 -22 c-7 -20 -2 -25 42 -47 55 -28 79 -23 85 17 2 11 10 21 18 21
8 0 14 7 14 15 0 8 13 29 28 47 72 85 106 131 90 125 -10 -4 -30 5 -54 24 -47
37 -60 37 -84 -3z m62 -35 c53 -50 28 -80 -27 -32 -28 25 -33 34 -24 45 15 19
19 18 51 -13z"/>
<path d="M2530 2181 c0 -17 -131 -113 -146 -107 -11 4 -12 2 -4 -12 24 -42 56
-70 45 -39 -2 6 7 21 22 31 24 18 26 18 35 2 25 -45 102 -39 128 9 11 20 10
28 -4 50 -9 14 -21 25 -26 25 -5 0 -7 6 -4 13 3 8 -6 18 -21 25 -14 6 -25 8
-25 3z m50 -76 c0 -16 -47 -55 -67 -55 -30 0 -26 33 8 61 34 28 59 25 59 -6z"/>
<path d="M804 2108 c10 -75 25 -238 36 -398 9 -125 8 -207 -4 -422 -20 -344
-20 -350 4 -378 16 -19 26 -22 61 -17 68 9 69 8 69 -113 0 -86 3 -109 15 -113
8 -4 241 -5 517 -4 l503 2 19 59 c15 47 17 62 7 78 -8 13 -8 24 -2 37 8 14 6
23 -9 36 -25 22 -25 30 -1 52 24 23 37 79 22 97 -8 10 -4 21 19 47 16 19 30
42 30 52 0 9 5 17 10 17 6 0 10 11 10 24 0 13 7 26 15 30 8 3 15 12 15 21 0 8
11 20 24 24 19 8 25 19 30 59 3 28 13 56 22 63 8 7 13 18 10 25 -6 14 13 36
50 61 13 8 24 25 24 37 0 39 11 62 33 71 28 12 35 55 12 71 -15 11 -15 14 4
33 12 12 21 27 21 35 0 7 9 16 20 19 15 4 20 14 22 39 2 59 14 88 34 88 8 0
14 6 14 14 0 8 7 16 15 20 21 8 19 20 -9 53 -24 29 -25 29 -118 25 -103 -5
-102 -7 -36 62 31 32 39 90 13 100 -8 3 -15 12 -15 21 0 13 -84 15 -756 15
l-755 0 5 -42z m406 24 c0 -5 -6 -17 -14 -27 -13 -18 -14 -18 -25 2 -6 12 -21
24 -33 26 -13 2 -2 5 25 6 26 0 47 -3 47 -7z m1080 -2 c0 -5 -7 -10 -15 -10
-22 0 -117 -45 -212 -102 -48 -28 -110 -59 -140 -69 -53 -19 -246 -44 -262
-35 -4 3 -35 49 -67 103 -32 53 -63 103 -67 110 -6 11 66 13 378 13 250 0 385
-4 385 -10z m-1264 -125 c28 21 35 18 28 -10 -4 -17 -1 -32 10 -44 16 -18 15
-19 -13 -29 -16 -6 -32 -20 -36 -31 -8 -27 -22 -27 -30 -1 -4 14 -15 20 -36
20 -34 0 -37 9 -8 34 15 12 20 26 17 46 -4 28 -4 28 23 15 23 -12 29 -12 45 0z
m518 -33 c-4 -19 -1 -32 10 -41 19 -16 12 -31 -13 -31 -10 0 -24 -11 -31 -25
-16 -30 -27 -32 -35 -5 -5 14 -15 20 -37 20 l-31 0 21 23 c12 13 22 35 22 50
0 30 3 31 29 17 13 -6 24 -5 37 5 28 21 34 18 28 -13z m-249 -24 c35 16 36 16
29 -13 -4 -17 -1 -32 10 -44 16 -18 15 -19 -13 -29 -16 -6 -32 -20 -36 -31 -8
-26 -22 -27 -30 -2 -3 10 -17 22 -30 25 -24 6 -25 7 -9 31 10 16 14 34 10 50
-6 23 -5 24 19 13 19 -8 31 -8 50 0z m1158 -33 c18 -24 17 -25 -4 -25 -18 0
-19 -2 -9 -15 8 -10 9 -15 2 -15 -19 0 -65 -52 -53 -60 15 -9 2 -70 -15 -70
-8 0 -14 -7 -14 -15 0 -8 -11 -25 -25 -39 -28 -28 -32 -51 -10 -60 19 -7 20
-26 2 -26 -8 0 -58 -22 -113 -49 -83 -42 -114 -52 -189 -61 -49 -6 -91 -13
-93 -14 -2 -2 22 -45 53 -95 30 -51 55 -93 55 -96 0 -2 -17 -9 -37 -16 -61
-20 -109 -57 -149 -115 l-37 -54 26 -28 c40 -41 77 -132 84 -205 7 -80 0 -112
-31 -132 -21 -14 -28 -14 -58 -2 -32 14 -96 88 -111 130 -4 9 -18 22 -31 27
-21 7 -35 3 -82 -25 -67 -41 -147 -72 -223 -88 -54 -12 -54 -12 -75 18 -43 61
-93 105 -120 105 -15 0 -67 -20 -116 -45 l-90 -45 0 54 c0 52 -1 54 -30 60
-17 3 -42 0 -56 -6 -23 -11 -29 -10 -45 11 -15 18 -19 40 -19 103 0 78 0 79
29 89 28 10 28 12 19 52 -12 54 -2 112 28 165 22 37 23 42 8 42 -15 0 -14 4 5
24 17 18 22 32 17 50 -6 24 -5 25 24 14 24 -8 35 -7 55 6 24 16 24 16 19 -11
l-6 -28 84 3 c46 2 106 0 134 -5 51 -10 51 -10 82 27 26 31 30 44 26 71 -5 27
-1 39 15 53 12 11 21 31 21 48 0 30 6 33 29 19 10 -6 25 -4 43 5 26 14 28 13
28 -7 0 -18 4 -20 28 -13 15 4 41 8 57 9 26 2 30 6 33 33 3 29 5 30 28 22 19
-8 31 -6 51 7 l26 18 -6 -32 c-4 -21 -2 -35 8 -43 21 -17 19 -30 -5 -30 -12 0
-28 -13 -40 -32 l-19 -31 -12 26 c-18 40 -43 36 -36 -5 15 -92 29 -135 52
-158 l25 -25 17 25 c30 44 85 89 130 106 24 9 43 19 43 21 0 2 -22 42 -50 89
l-50 84 63 0 c105 0 193 25 277 77 160 99 263 152 300 152 8 0 23 -11 33 -24z
m-1526 -154 c-4 -19 -1 -33 8 -41 22 -18 18 -30 -9 -30 -17 0 -27 -9 -36 -31
-18 -41 -28 -26 -32 49 -2 49 0 61 10 57 8 -3 23 2 35 10 29 20 30 19 24 -14z
m288 -79 c-4 -20 -1 -33 10 -42 22 -18 19 -27 -14 -33 -18 -4 -32 -14 -36 -27
-8 -26 -22 -26 -30 0 -5 14 -15 20 -37 20 l-31 0 23 24 c15 17 21 33 18 50 -6
30 -7 29 24 17 16 -6 32 -5 48 5 33 18 32 18 25 -14z"/>
<path d="M1491 1546 c-9 -11 -8 -18 4 -30 9 -9 21 -16 26 -16 5 0 9 -9 9 -19
0 -11 5 -23 10 -26 6 -3 10 5 10 19 0 32 17 43 25 16 3 -11 11 -20 16 -20 16
0 0 38 -27 65 -28 28 -56 32 -73 11z"/>
<path d="M1414 1513 c-4 -13 -10 -23 -15 -23 -15 0 -10 -87 6 -100 20 -16 32
-6 57 47 16 34 19 49 11 62 -6 9 -17 15 -24 13 -7 -2 -16 3 -21 10 -6 10 -10
7 -14 -9z"/>
<path d="M1494 1373 c-10 -15 -15 -16 -33 -5 -38 22 -22 -2 34 -51 31 -27 60
-45 66 -41 8 4 -2 19 -27 40 -36 30 -37 33 -16 34 17 0 23 5 20 17 -4 24 -31
27 -44 6z"/>
<path d="M1570 1370 c0 -21 15 -27 25 -10 3 6 15 10 26 10 11 0 17 5 14 10 -3
6 -19 10 -36 10 -22 0 -29 -5 -29 -20z"/>
<path d="M1044 1361 c-22 -10 -50 -30 -61 -44 -24 -31 -36 -91 -25 -132 8 -27
13 -30 54 -33 39 -3 54 -10 93 -47 28 -27 59 -47 79 -51 48 -9 139 13 224 53
80 38 85 48 53 111 -37 71 -102 119 -93 68 2 -11 -4 -16 -21 -16 -16 0 -28 -9
-35 -25 -12 -25 -32 -34 -32 -14 0 6 -13 1 -29 -10 -38 -28 -47 -26 -27 4 20
31 20 35 -1 35 -14 0 -13 3 5 23 12 13 22 35 22 50 0 30 3 32 30 17 12 -6 21
-6 25 -1 19 32 -195 42 -261 12z"/>
<path d="M1462 1293 c2 -5 13 -27 24 -50 18 -39 57 -63 69 -43 7 11 -66 100
-82 100 -8 0 -13 -3 -11 -7z"/>
<path d="M1566 1262 c-2 -4 -1 -14 4 -22 7 -11 11 -11 24 -1 9 8 16 17 16 22
0 11 -37 12 -44 1z"/>
<path d="M1782 1028 c-18 -18 -16 -78 3 -78 8 0 15 -9 15 -19 0 -10 -7 -21
-15 -25 -23 -8 -18 -47 10 -89 40 -59 105 -60 105 -2 0 40 -37 145 -66 186
-29 42 -34 45 -52 27z"/>
<path d="M1690 915 c-11 -13 -8 -15 20 -15 21 0 30 4 28 13 -7 18 -33 20 -48
2z"/>
<path d="M2694 2055 c-8 -19 12 -36 33 -28 19 7 12 37 -10 41 -9 2 -20 -4 -23
-13z"/>
<path d="M2606 2008 c-19 -18 -37 -27 -48 -25 -24 7 -23 -2 7 -38 14 -16 24
-24 23 -16 -2 8 20 27 49 44 l52 30 -24 19 c-28 21 -23 23 -59 -14z"/>
<path d="M2620 1918 c-24 -26 -25 -40 -5 -77 25 -50 82 -56 115 -14 55 70 -49
157 -110 91z m99 -22 c9 -11 6 -18 -15 -35 -30 -24 -74 -28 -74 -8 0 20 41 52
71 56 4 1 12 -5 18 -13z"/>
<path d="M353 1910 c-44 -18 -57 -86 -23 -120 42 -42 103 -17 116 46 10 51
-43 94 -93 74z m67 -65 c14 -17 5 -35 -16 -35 -45 0 -95 51 -61 63 16 5 63
-11 77 -28z"/>
<path d="M186 1768 c-5 -25 -2 -36 11 -46 10 -6 40 -29 66 -50 l48 -37 -83
-16 c-73 -13 -83 -18 -89 -40 -12 -43 -11 -52 6 -35 9 8 21 13 28 11 117 -36
147 -49 147 -61 0 -27 17 -14 24 17 9 46 7 55 -6 36 -12 -15 -18 -15 -78 2
l-65 18 53 12 c29 6 63 11 75 11 23 0 55 16 47 23 -3 2 -33 25 -67 52 -35 26
-63 49 -63 50 0 1 29 -5 65 -13 45 -11 65 -21 65 -31 1 -24 16 6 25 49 6 29 5
33 -7 23 -22 -19 -178 19 -178 42 0 28 -18 15 -24 -17z"/>
<path d="M2760 1793 c0 -15 -65 -36 -89 -28 -18 5 -19 3 -9 -30 10 -31 28 -49
28 -27 0 5 17 14 37 20 40 12 60 4 50 -21 -6 -16 -71 -32 -89 -21 -8 5 -9 2
-5 -10 4 -10 10 -29 13 -43 5 -17 9 -21 15 -12 4 7 27 20 51 29 48 17 61 49
33 80 -9 10 -12 19 -6 21 5 2 1 15 -9 29 -11 14 -20 20 -20 13z"/>
<path d="M2783 1612 c-6 -4 -16 -20 -22 -35 -11 -28 -25 -35 -36 -16 -4 5 1
19 11 30 14 16 15 19 2 19 -24 0 -37 -22 -31 -53 11 -55 75 -56 89 -2 3 14 12
25 20 25 17 0 18 -22 2 -39 -11 -10 -9 -12 7 -9 26 4 31 33 11 63 -17 26 -32
30 -53 17z"/>
<path d="M2918 1502 c-4 -13 -178 -23 -178 -12 0 6 -3 10 -8 10 -4 0 -6 -19
-4 -41 3 -23 7 -37 11 -31 3 5 26 12 51 13 39 3 45 1 45 -16 0 -17 -7 -20 -50
-20 l-51 0 -2 -78 c-1 -65 1 -77 12 -68 9 7 34 9 70 5 44 -5 56 -4 56 7 -1 33
-18 43 -69 40 -45 -2 -51 0 -51 17 0 22 18 32 60 32 44 0 79 47 50 65 -24 15
-6 25 45 25 30 0 55 2 55 5 0 2 -5 16 -12 30 -11 25 -24 32 -30 17z"/>
<path d="M207 1393 c-4 -3 -7 -18 -7 -33 0 -52 48 -68 76 -25 18 27 44 34 44
10 0 -7 -8 -19 -17 -25 -13 -8 -14 -13 -5 -16 6 -3 12 -12 12 -19 0 -9 -15
-15 -46 -17 -58 -4 -73 -22 -55 -66 17 -41 61 -59 45 -18 -3 9 -13 16 -21 16
-19 0 -11 24 9 28 9 2 24 -12 36 -33 23 -37 33 -42 50 -22 9 11 10 96 1 122
-1 6 0 20 4 31 21 62 -43 100 -81 47 -12 -16 -24 -23 -31 -19 -9 6 -8 13 5 27
14 16 15 19 2 19 -8 0 -18 -3 -21 -7z m113 -173 c0 -5 -9 -10 -20 -10 -11 0
-20 5 -20 10 0 6 9 10 20 10 11 0 20 -4 20 -10z"/>
<path d="M2901 1297 c-14 -17 3 -41 23 -34 9 4 16 13 16 21 0 19 -26 28 -39
13z"/>
<path d="M2648 1209 c-3 -36 5 -54 14 -27 3 7 14 9 31 4 20 -5 27 -13 27 -32
0 -38 16 -61 51 -73 48 -17 75 5 82 65 5 51 0 77 -13 69 -11 -7 -150 14 -172
25 -13 7 -17 2 -20 -31z m185 -49 c5 -4 1 -15 -9 -25 -31 -31 -109 0 -82 32
11 14 74 9 91 -7z"/>
<path d="M288 1139 c-10 -5 -18 -15 -18 -22 0 -21 -17 -40 -29 -33 -8 5 -8 13
-1 27 9 15 7 19 -5 19 -22 0 -19 -53 4 -74 24 -22 56 -8 65 29 4 14 13 25 21
25 18 0 20 -31 3 -48 -9 -9 -8 -12 6 -12 32 0 11 -25 -35 -40 -45 -16 -58 -36
-43 -68 4 -9 8 -21 9 -27 0 -5 7 -20 14 -33 11 -21 14 -22 29 -9 9 9 33 18 52
22 31 6 36 4 37 -14 1 -15 -10 -26 -43 -40 -32 -14 -44 -26 -44 -41 0 -25 42
-70 65 -70 24 0 13 23 -14 30 -27 6 -30 20 -7 35 12 7 19 5 31 -13 11 -14 26
-22 47 -22 25 0 29 -3 23 -17 -4 -10 -12 -30 -17 -45 -11 -32 -24 -35 -56 -12
-12 8 -22 11 -22 6 0 -14 39 -59 40 -46 0 13 50 6 50 -7 0 -4 -30 -25 -66 -45
l-66 -37 23 -18 c29 -22 35 -23 42 -5 8 20 144 99 157 91 18 -11 10 9 -16 40
-14 17 -23 25 -19 18 5 -10 -22 -33 -40 -33 -7 0 15 43 27 51 9 6 -22 69 -34
69 -4 0 -5 6 -2 14 3 7 -2 20 -10 29 -9 9 -16 25 -16 36 0 11 -4 23 -10 26 -5
3 -14 23 -20 45 -10 38 -11 38 -38 25 -52 -25 -72 -27 -78 -10 -10 24 9 37 55
38 45 2 46 3 30 44 -7 15 -11 41 -10 57 2 32 -23 76 -42 76 -6 0 -20 -5 -29
-11z m140 -331 c-7 -19 -38 -22 -38 -4 0 10 9 16 21 16 12 0 19 -5 17 -12z"/>
<path d="M2675 955 c-21 -46 -13 -88 22 -104 31 -14 60 -6 95 26 31 29 62 27
66 -5 3 -17 -4 -25 -29 -36 -31 -13 -31 -14 -10 -21 28 -8 48 8 56 45 9 40 -1
65 -30 78 -28 13 -54 5 -97 -29 -28 -23 -54 -20 -64 6 -8 20 23 55 48 55 10 0
18 5 18 10 0 6 -13 10 -29 10 -23 0 -32 -7 -46 -35z"/>
<path d="M2626 816 c-30 -29 -33 -58 -9 -77 11 -9 14 -10 9 -2 -12 20 12 53
39 53 29 0 30 -5 10 -40 -20 -36 -19 -40 15 -40 73 0 63 108 -12 126 -21 4
-33 0 -52 -20z m90 -71 c-8 -23 -25 -9 -19 16 4 13 9 17 16 10 5 -5 7 -17 3
-26z"/>
<path d="M2567 711 c-19 -32 -22 -45 -8 -36 11 6 81 -33 81 -45 0 -5 -5 -10
-12 -12 -13 -5 -4 -38 11 -38 5 0 13 9 16 20 3 11 11 20 16 20 5 0 9 14 9 31
0 16 -4 28 -8 25 -12 -7 -84 43 -77 55 4 5 2 9 -2 9 -5 0 -16 -13 -26 -29z"/>
<path d="M2503 611 c-27 -35 -28 -42 -8 -35 8 3 32 -8 54 -25 47 -38 57 -38
63 -6 3 14 1 25 -4 25 -16 0 -77 45 -80 58 -2 9 -12 2 -25 -17z"/>
<path d="M1057 602 c-10 -10 -17 -22 -17 -26 0 -27 -64 -165 -78 -169 -9 -3 3
-5 28 -6 29 0 40 2 31 8 -9 6 -11 18 -7 35 5 22 12 26 40 26 29 0 34 -4 39
-27 3 -16 0 -31 -6 -35 -7 -4 29 -7 78 -7 50 1 82 3 73 6 -15 4 -18 16 -17 76
l1 72 18 -40 c11 -22 26 -57 35 -77 8 -21 19 -38 24 -38 4 0 24 35 44 78 l36
77 0 -72 c1 -60 -2 -72 -16 -76 -10 -3 7 -5 37 -6 42 0 51 2 38 10 -15 8 -18
25 -18 94 0 69 3 86 18 95 14 8 9 10 -21 8 -36 -3 -40 -6 -60 -53 -43 -99 -42
-99 -79 -18 l-33 73 -40 -1 c-22 -1 -32 -3 -22 -6 16 -4 17 -15 15 -96 -3 -85
-5 -92 -24 -95 -19 -3 -26 10 -59 102 -21 59 -39 106 -40 106 -1 0 -9 -8 -18
-18z m12 -99 c1 -7 -8 -13 -19 -13 -23 0 -23 0 -9 37 10 26 12 27 19 8 5 -11
9 -26 9 -32z"/>
<path d="M1745 606 c-48 -21 -68 -51 -69 -102 -1 -40 3 -50 32 -75 59 -52 172
-40 172 20 0 10 -8 7 -28 -12 -36 -35 -74 -35 -101 -1 -46 58 -14 164 49 164
19 0 36 -9 49 -26 l21 -27 0 30 c0 23 -5 32 -22 37 -35 9 -70 6 -103 -8z"/>
<path d="M1940 613 c-22 -9 -39 -35 -40 -61 0 -15 14 -32 45 -54 37 -26 45
-38 43 -58 -4 -36 -40 -38 -73 -3 l-26 28 3 -29 c2 -23 9 -31 33 -38 41 -11
94 8 105 38 13 34 -1 63 -46 93 -42 29 -52 63 -21 69 11 2 30 -6 43 -19 l24
-22 0 21 c0 33 -47 51 -90 35z"/>
<path d="M563 598 c4 -11 -4 -25 -24 -43 -35 -29 -49 -32 -49 -10 0 15 -21 21
-33 9 -10 -10 5 -34 22 -34 11 0 12 -3 4 -8 -9 -6 -4 -13 17 -26 24 -13 30
-14 30 -3 0 7 13 23 30 35 64 48 68 19 14 -97 -24 -51 -44 -95 -44 -96 0 -15
47 -5 105 24 39 19 85 34 103 35 39 0 39 4 -1 36 -24 19 -30 21 -24 7 5 -13 0
-21 -19 -29 -21 -10 -28 -9 -45 9 -17 17 -18 23 -8 46 8 17 17 23 27 19 8 -3
-11 26 -43 64 -70 84 -70 83 -62 62z m76 -211 c8 -11 5 -16 -15 -25 -34 -16
-35 -16 -22 13 13 28 21 31 37 12z"/>
<path d="M1478 598 c17 -17 16 -185 0 -191 -7 -3 19 -6 57 -6 87 -1 118 16
113 62 -2 20 -11 35 -25 42 -21 11 -21 11 -2 23 23 15 25 45 3 66 -11 12 -35
16 -87 16 -55 0 -68 -3 -59 -12z m102 -12 c18 -23 8 -61 -17 -64 -21 -3 -23 1
-23 37 0 43 17 54 40 27z m18 -123 c3 -33 -19 -59 -43 -49 -15 5 -22 76 -9 89
15 15 49 -12 52 -40z"/>
<path d="M2432 527 c-21 -22 -30 -67 -14 -67 4 0 12 10 17 22 11 26 33 33 55
18 12 -8 10 -14 -13 -38 -24 -25 -26 -31 -13 -41 21 -18 46 -10 69 21 18 24
18 30 7 58 -22 53 -72 66 -108 27z m88 -67 c0 -11 -7 -20 -15 -20 -18 0 -19
12 -3 28 16 16 18 15 18 -8z"/>
<path d="M2637 524 c-16 -16 -7 -44 14 -44 15 0 20 5 17 22 -3 22 -19 33 -31
22z"/>
<path d="M2352 447 c-40 -43 -22 -77 41 -77 27 0 37 -4 34 -12 -2 -7 -15 -12
-28 -10 -23 3 -23 2 -6 -15 18 -17 19 -17 43 10 28 33 29 40 9 61 -10 10 -26
13 -50 9 -28 -4 -35 -2 -35 11 0 11 9 16 31 16 27 0 30 2 19 15 -17 21 -33 19
-58 -8z"/>
</g>
</svg>
